# Blender v2.76 (sub 0) OBJ File: ''
# www.blender.org
mtllib moscow.mtl
o Объект_Труба
v 4.924038 2.000000 0.868241
v 4.933887 2.000000 0.869978
v 5.010000 2.000000 0.000000
v 5.000000 2.000000 0.000000
v 4.933887 -2.000000 0.869977
v 5.010000 -2.000000 -0.000000
v 4.924038 -2.000000 0.868241
v 5.000000 -2.000000 -0.000000
v 4.698463 2.000000 1.710101
v 4.707860 2.000000 1.713521
v 4.707860 -2.000000 1.713521
v 4.698463 -2.000000 1.710100
v 4.330127 2.000000 2.500000
v 4.338787 2.000000 2.505000
v 4.338787 -2.000000 2.505000
v 4.330127 -2.000000 2.500000
v 3.830222 2.000000 3.213938
v 3.837883 2.000000 3.220366
v 3.837883 -2.000000 3.220366
v 3.830222 -2.000000 3.213938
v 3.213938 1.999999 3.830222
v 3.220366 1.999999 3.837883
v 3.220366 -2.000001 3.837882
v 3.213938 -2.000001 3.830222
v 2.500000 1.999999 4.330127
v 2.505000 1.999999 4.338788
v 2.505000 -2.000001 4.338787
v 2.500000 -2.000001 4.330126
v 1.710101 1.999999 4.698463
v 1.713521 1.999999 4.707860
v 1.713521 -2.000001 4.707860
v 1.710101 -2.000001 4.698462
v 0.868241 1.999999 4.924039
v 0.869977 1.999999 4.933887
v 0.869977 -2.000001 4.933886
v 0.868241 -2.000001 4.924038
v 0.000000 1.999999 5.000000
v 0.000000 1.999999 5.010000
v 0.000000 -2.000001 5.009999
v 0.000000 -2.000001 5.000000
v -0.868241 1.999999 4.924039
v -0.869977 1.999999 4.933887
v -0.869977 -2.000001 4.933886
v -0.868241 -2.000001 4.924038
v -1.710101 1.999999 4.698463
v -1.713521 1.999999 4.707860
v -1.713521 -2.000001 4.707860
v -1.710101 -2.000001 4.698462
v -2.500000 1.999999 4.330127
v -2.505000 1.999999 4.338788
v -2.505000 -2.000001 4.338787
v -2.500000 -2.000001 4.330126
v -3.213938 1.999999 3.830222
v -3.220366 1.999999 3.837883
v -3.220366 -2.000001 3.837882
v -3.213938 -2.000001 3.830222
v -3.830222 2.000000 3.213938
v -3.837883 2.000000 3.220366
v -3.837883 -2.000000 3.220366
v -3.830222 -2.000000 3.213938
v -4.330127 2.000000 2.500000
v -4.338787 2.000000 2.505000
v -4.338787 -2.000000 2.505000
v -4.330127 -2.000000 2.500000
v -4.698463 2.000000 1.710101
v -4.707860 2.000000 1.713521
v -4.707860 -2.000000 1.713521
v -4.698463 -2.000000 1.710100
v -4.924038 2.000000 0.868241
v -4.933887 2.000000 0.869978
v -4.933887 -2.000000 0.869977
v -4.924038 -2.000000 0.868241
v -5.000000 2.000000 0.000000
v -5.010000 2.000000 0.000000
v -5.010000 -2.000000 -0.000000
v -5.000000 -2.000000 -0.000000
v -4.924038 2.000000 -0.868241
v -4.933887 2.000000 -0.869977
v -4.933887 -2.000000 -0.869978
v -4.924038 -2.000000 -0.868241
v -4.698463 2.000000 -1.710100
v -4.707860 2.000000 -1.713521
v -4.707860 -2.000000 -1.713521
v -4.698463 -2.000000 -1.710101
v -4.330127 2.000000 -2.500000
v -4.338787 2.000000 -2.505000
v -4.338787 -2.000000 -2.505000
v -4.330127 -2.000000 -2.500000
v -3.830222 2.000000 -3.213938
v -3.837883 2.000000 -3.220366
v -3.837883 -2.000000 -3.220366
v -3.830222 -2.000000 -3.213938
v -3.213938 2.000001 -3.830222
v -3.220366 2.000001 -3.837882
v -3.220366 -1.999999 -3.837883
v -3.213938 -1.999999 -3.830222
v -2.500000 2.000001 -4.330126
v -2.505000 2.000001 -4.338787
v -2.505000 -1.999999 -4.338788
v -2.500000 -1.999999 -4.330127
v -1.710101 2.000001 -4.698462
v -1.713521 2.000001 -4.707860
v -1.713521 -1.999999 -4.707860
v -1.710101 -1.999999 -4.698463
v -0.868241 2.000001 -4.924038
v -0.869977 2.000001 -4.933886
v -0.869977 -1.999999 -4.933887
v -0.868241 -1.999999 -4.924039
v -0.000000 2.000001 -5.000000
v -0.000000 2.000001 -5.009999
v -0.000000 -1.999999 -5.010000
v -0.000000 -1.999999 -5.000000
v 0.868241 2.000001 -4.924038
v 0.869977 2.000001 -4.933886
v 0.869977 -1.999999 -4.933887
v 0.868241 -1.999999 -4.924039
v 1.710101 2.000001 -4.698462
v 1.713521 2.000001 -4.707860
v 1.713521 -1.999999 -4.707860
v 1.710101 -1.999999 -4.698463
v 2.500000 2.000001 -4.330126
v 2.505000 2.000001 -4.338787
v 2.505000 -1.999999 -4.338788
v 2.500000 -1.999999 -4.330127
v 3.213938 2.000001 -3.830222
v 3.220366 2.000001 -3.837882
v 3.220366 -1.999999 -3.837883
v 3.213938 -1.999999 -3.830222
v 3.830222 2.000000 -3.213938
v 3.837883 2.000000 -3.220366
v 3.837883 -2.000000 -3.220366
v 3.830222 -2.000000 -3.213938
v 4.330127 2.000000 -2.500000
v 4.338787 2.000000 -2.505000
v 4.338787 -2.000000 -2.505000
v 4.330127 -2.000000 -2.500000
v 4.698463 2.000000 -1.710100
v 4.707860 2.000000 -1.713521
v 4.707860 -2.000000 -1.713521
v 4.698463 -2.000000 -1.710101
v 4.924038 2.000000 -0.868241
v 4.933887 2.000000 -0.869977
v 4.933887 -2.000000 -0.869978
v 4.924038 -2.000000 -0.868241
vt 0.008579 0.586651
vt 0.007596 0.586824
vt 0.000000 0.500000
vt 0.000998 0.500000
vt 0.027778 0.000000
vt 0.027778 1.000000
vt 0.000000 1.000000
vt 0.000000 0.000000
vt 0.992404 0.586824
vt 0.991421 0.586651
vt 0.999002 0.500000
vt 1.000000 0.500000
vt 0.031092 0.670669
vt 0.030154 0.671010
vt 0.055556 0.000000
vt 0.055556 1.000000
vt 0.969846 0.671010
vt 0.968908 0.670669
vt 0.067852 0.749501
vt 0.066987 0.750000
vt 0.083333 0.000000
vt 0.083333 1.000000
vt 0.933013 0.750000
vt 0.932148 0.749501
vt 0.117742 0.820752
vt 0.116978 0.821394
vt 0.111111 0.000000
vt 0.111111 1.000000
vt 0.883022 0.821394
vt 0.882258 0.820752
vt 0.179248 0.882258
vt 0.178606 0.883022
vt 0.138889 0.000000
vt 0.138889 1.000000
vt 0.821394 0.883022
vt 0.820752 0.882258
vt 0.250499 0.932148
vt 0.250000 0.933013
vt 0.166667 0.000000
vt 0.166667 1.000000
vt 0.750000 0.933013
vt 0.749501 0.932148
vt 0.329331 0.968908
vt 0.328990 0.969846
vt 0.194444 0.000000
vt 0.194444 1.000000
vt 0.671010 0.969846
vt 0.670669 0.968908
vt 0.413349 0.991421
vt 0.413176 0.992404
vt 0.222222 0.000000
vt 0.222222 1.000000
vt 0.586824 0.992404
vt 0.586651 0.991421
vt 0.500000 0.999002
vt 0.500000 1.000000
vt 0.250000 0.000000
vt 0.250000 1.000000
vt 0.277778 0.000000
vt 0.277778 1.000000
vt 0.305556 0.000000
vt 0.305556 1.000000
vt 0.333333 0.000000
vt 0.333333 1.000000
vt 0.361111 0.000000
vt 0.361111 1.000000
vt 0.388889 0.000000
vt 0.388889 1.000000
vt 0.416667 0.000000
vt 0.416667 1.000000
vt 0.444444 0.000000
vt 0.444444 1.000000
vt 0.472222 0.000000
vt 0.472222 1.000000
vt 0.500000 0.000000
vt 0.991421 0.413349
vt 0.992404 0.413176
vt 0.527778 0.000000
vt 0.527778 1.000000
vt 0.007596 0.413176
vt 0.008579 0.413349
vt 0.968908 0.329331
vt 0.969846 0.328990
vt 0.555556 0.000000
vt 0.555556 1.000000
vt 0.030154 0.328990
vt 0.031092 0.329331
vt 0.932148 0.250499
vt 0.933013 0.250000
vt 0.583333 0.000000
vt 0.583333 1.000000
vt 0.066987 0.250000
vt 0.067852 0.250499
vt 0.882258 0.179248
vt 0.883022 0.178606
vt 0.611111 0.000000
vt 0.611111 1.000000
vt 0.116978 0.178606
vt 0.117742 0.179248
vt 0.820752 0.117742
vt 0.821394 0.116978
vt 0.638889 0.000000
vt 0.638889 1.000000
vt 0.178606 0.116978
vt 0.179248 0.117742
vt 0.749501 0.067852
vt 0.750000 0.066987
vt 0.666667 0.000000
vt 0.666667 1.000000
vt 0.250000 0.066987
vt 0.250499 0.067852
vt 0.670669 0.031092
vt 0.671010 0.030154
vt 0.694444 0.000000
vt 0.694444 1.000000
vt 0.328990 0.030154
vt 0.329331 0.031092
vt 0.586651 0.008579
vt 0.586824 0.007596
vt 0.722222 0.000000
vt 0.722222 1.000000
vt 0.413176 0.007596
vt 0.413349 0.008579
vt 0.500000 0.000998
vt 0.750000 0.000000
vt 0.750000 1.000000
vt 0.777778 0.000000
vt 0.777778 1.000000
vt 0.805556 0.000000
vt 0.805556 1.000000
vt 0.833333 0.000000
vt 0.833333 1.000000
vt 0.861111 0.000000
vt 0.861111 1.000000
vt 0.888889 0.000000
vt 0.888889 1.000000
vt 0.916667 0.000000
vt 0.916667 1.000000
vt 0.944444 0.000000
vt 0.944444 1.000000
vt 0.972222 0.000000
vt 0.972222 1.000000
vt 1.000000 0.000000
vt 1.000000 1.000000
vn -0.000000 1.000000 -0.000000
vn 0.984800 -0.000000 0.173600
vn 1.000000 -0.000000 0.000000
vn 0.000000 -1.000000 0.000000
vn -0.984800 0.000000 -0.173600
vn -1.000000 -0.000000 0.000000
vn 0.939700 -0.000000 0.342000
vn -0.939700 0.000000 -0.342000
vn 0.866000 -0.000000 0.500000
vn -0.866000 0.000000 -0.500000
vn 0.766000 -0.000000 0.642800
vn -0.766000 0.000000 -0.642800
vn 0.642800 -0.000000 0.766000
vn -0.642800 0.000000 -0.766000
vn 0.500000 -0.000000 0.866000
vn -0.500000 0.000000 -0.866000
vn 0.342000 -0.000000 0.939700
vn -0.342000 0.000000 -0.939700
vn 0.173600 -0.000000 0.984800
vn -0.173600 0.000000 -0.984800
vn 0.000000 -0.000000 1.000000
vn 0.000000 0.000000 -1.000000
vn -0.173600 -0.000000 0.984800
vn 0.173600 0.000000 -0.984800
vn -0.342000 -0.000000 0.939700
vn 0.342000 0.000000 -0.939700
vn -0.500000 -0.000000 0.866000
vn 0.500000 0.000000 -0.866000
vn -0.642800 -0.000000 0.766000
vn 0.642800 0.000000 -0.766000
vn -0.766000 -0.000000 0.642800
vn 0.766000 0.000000 -0.642800
vn -0.866000 -0.000000 0.500000
vn 0.866000 0.000000 -0.500000
vn -0.939700 -0.000000 0.342000
vn 0.939700 0.000000 -0.342000
vn -0.984800 -0.000000 0.173600
vn 0.984800 0.000000 -0.173600
usemtl Материал
s 1
f 1/1/1 2/2/1 3/3/1 4/4/1
f 2/5/2 5/6/2 6/7/3 3/8/3
f 5/9/4 7/10/4 8/11/4 6/12/4
f 7/5/5 1/6/5 4/7/6 8/8/6
f 9/13/1 10/14/1 2/2/1 1/1/1
f 10/15/7 11/16/7 5/6/2 2/5/2
f 11/17/4 12/18/4 7/10/4 5/9/4
f 12/15/8 9/16/8 1/6/5 7/5/5
f 13/19/1 14/20/1 10/14/1 9/13/1
f 14/21/9 15/22/9 11/16/7 10/15/7
f 15/23/4 16/24/4 12/18/4 11/17/4
f 16/21/10 13/22/10 9/16/8 12/15/8
f 17/25/1 18/26/1 14/20/1 13/19/1
f 18/27/11 19/28/11 15/22/9 14/21/9
f 19/29/4 20/30/4 16/24/4 15/23/4
f 20/27/12 17/28/12 13/22/10 16/21/10
f 21/31/1 22/32/1 18/26/1 17/25/1
f 22/33/13 23/34/13 19/28/11 18/27/11
f 23/35/4 24/36/4 20/30/4 19/29/4
f 24/33/14 21/34/14 17/28/12 20/27/12
f 25/37/1 26/38/1 22/32/1 21/31/1
f 26/39/15 27/40/15 23/34/13 22/33/13
f 27/41/4 28/42/4 24/36/4 23/35/4
f 28/39/16 25/40/16 21/34/14 24/33/14
f 29/43/1 30/44/1 26/38/1 25/37/1
f 30/45/17 31/46/17 27/40/15 26/39/15
f 31/47/4 32/48/4 28/42/4 27/41/4
f 32/45/18 29/46/18 25/40/16 28/39/16
f 33/49/1 34/50/1 30/44/1 29/43/1
f 34/51/19 35/52/19 31/46/17 30/45/17
f 35/53/4 36/54/4 32/48/4 31/47/4
f 36/51/20 33/52/20 29/46/18 32/45/18
f 37/55/1 38/56/1 34/50/1 33/49/1
f 38/57/21 39/58/21 35/52/19 34/51/19
f 39/56/4 40/55/4 36/54/4 35/53/4
f 40/57/22 37/58/22 33/52/20 36/51/20
f 41/54/1 42/53/1 38/56/1 37/55/1
f 42/59/23 43/60/23 39/58/21 38/57/21
f 43/50/4 44/49/4 40/55/4 39/56/4
f 44/59/24 41/60/24 37/58/22 40/57/22
f 45/48/1 46/47/1 42/53/1 41/54/1
f 46/61/25 47/62/25 43/60/23 42/59/23
f 47/44/4 48/43/4 44/49/4 43/50/4
f 48/61/26 45/62/26 41/60/24 44/59/24
f 49/42/1 50/41/1 46/47/1 45/48/1
f 50/63/27 51/64/27 47/62/25 46/61/25
f 51/38/4 52/37/4 48/43/4 47/44/4
f 52/63/28 49/64/28 45/62/26 48/61/26
f 53/36/1 54/35/1 50/41/1 49/42/1
f 54/65/29 55/66/29 51/64/27 50/63/27
f 55/32/4 56/31/4 52/37/4 51/38/4
f 56/65/30 53/66/30 49/64/28 52/63/28
f 57/30/1 58/29/1 54/35/1 53/36/1
f 58/67/31 59/68/31 55/66/29 54/65/29
f 59/26/4 60/25/4 56/31/4 55/32/4
f 60/67/32 57/68/32 53/66/30 56/65/30
f 61/24/1 62/23/1 58/29/1 57/30/1
f 62/69/33 63/70/33 59/68/31 58/67/31
f 63/20/4 64/19/4 60/25/4 59/26/4
f 64/69/34 61/70/34 57/68/32 60/67/32
f 65/18/1 66/17/1 62/23/1 61/24/1
f 66/71/35 67/72/35 63/70/33 62/69/33
f 67/14/4 68/13/4 64/19/4 63/20/4
f 68/71/36 65/72/36 61/70/34 64/69/34
f 69/10/1 70/9/1 66/17/1 65/18/1
f 70/73/37 71/74/37 67/72/35 66/71/35
f 71/2/4 72/1/4 68/13/4 67/14/4
f 72/73/38 69/74/38 65/72/36 68/71/36
f 73/11/1 74/12/1 70/9/1 69/10/1
f 74/75/6 75/56/6 71/74/37 70/73/37
f 75/3/4 76/4/4 72/1/4 71/2/4
f 76/75/3 73/56/3 69/74/38 72/73/38
f 77/76/1 78/77/1 74/12/1 73/11/1
f 78/78/5 79/79/5 75/56/6 74/75/6
f 79/80/4 80/81/4 76/4/4 75/3/4
f 80/78/2 77/79/2 73/56/3 76/75/3
f 81/82/1 82/83/1 78/77/1 77/76/1
f 82/84/8 83/85/8 79/79/5 78/78/5
f 83/86/4 84/87/4 80/81/4 79/80/4
f 84/84/7 81/85/7 77/79/2 80/78/2
f 85/88/1 86/89/1 82/83/1 81/82/1
f 86/90/10 87/91/10 83/85/8 82/84/8
f 87/92/4 88/93/4 84/87/4 83/86/4
f 88/90/9 85/91/9 81/85/7 84/84/7
f 89/94/1 90/95/1 86/89/1 85/88/1
f 90/96/12 91/97/12 87/91/10 86/90/10
f 91/98/4 92/99/4 88/93/4 87/92/4
f 92/96/11 89/97/11 85/91/9 88/90/9
f 93/100/1 94/101/1 90/95/1 89/94/1
f 94/102/14 95/103/14 91/97/12 90/96/12
f 95/104/4 96/105/4 92/99/4 91/98/4
f 96/102/13 93/103/13 89/97/11 92/96/11
f 97/106/1 98/107/1 94/101/1 93/100/1
f 98/108/16 99/109/16 95/103/14 94/102/14
f 99/110/4 100/111/4 96/105/4 95/104/4
f 100/108/15 97/109/15 93/103/13 96/102/13
f 101/112/1 102/113/1 98/107/1 97/106/1
f 102/114/18 103/115/18 99/109/16 98/108/16
f 103/116/4 104/117/4 100/111/4 99/110/4
f 104/114/17 101/115/17 97/109/15 100/108/15
f 105/118/1 106/119/1 102/113/1 101/112/1
f 106/120/20 107/121/20 103/115/18 102/114/18
f 107/122/4 108/123/4 104/117/4 103/116/4
f 108/120/19 105/121/19 101/115/17 104/114/17
f 109/124/1 110/75/1 106/119/1 105/118/1
f 110/125/22 111/126/22 107/121/20 106/120/20
f 111/75/4 112/124/4 108/123/4 107/122/4
f 112/125/21 109/126/21 105/121/19 108/120/19
f 113/123/1 114/122/1 110/75/1 109/124/1
f 114/127/24 115/128/24 111/126/22 110/125/22
f 115/119/4 116/118/4 112/124/4 111/75/4
f 116/127/23 113/128/23 109/126/21 112/125/21
f 117/117/1 118/116/1 114/122/1 113/123/1
f 118/129/26 119/130/26 115/128/24 114/127/24
f 119/113/4 120/112/4 116/118/4 115/119/4
f 120/129/25 117/130/25 113/128/23 116/127/23
f 121/111/1 122/110/1 118/116/1 117/117/1
f 122/131/28 123/132/28 119/130/26 118/129/26
f 123/107/4 124/106/4 120/112/4 119/113/4
f 124/131/27 121/132/27 117/130/25 120/129/25
f 125/105/1 126/104/1 122/110/1 121/111/1
f 126/133/30 127/134/30 123/132/28 122/131/28
f 127/101/4 128/100/4 124/106/4 123/107/4
f 128/133/29 125/134/29 121/132/27 124/131/27
f 129/99/1 130/98/1 126/104/1 125/105/1
f 130/135/32 131/136/32 127/134/30 126/133/30
f 131/95/4 132/94/4 128/100/4 127/101/4
f 132/135/31 129/136/31 125/134/29 128/133/29
f 133/93/1 134/92/1 130/98/1 129/99/1
f 134/137/34 135/138/34 131/136/32 130/135/32
f 135/89/4 136/88/4 132/94/4 131/95/4
f 136/137/33 133/138/33 129/136/31 132/135/31
f 137/87/1 138/86/1 134/92/1 133/93/1
f 138/139/36 139/140/36 135/138/34 134/137/34
f 139/83/4 140/82/4 136/88/4 135/89/4
f 140/139/35 137/140/35 133/138/33 136/137/33
f 141/81/1 142/80/1 138/86/1 137/87/1
f 142/141/38 143/142/38 139/140/36 138/139/36
f 143/77/4 144/76/4 140/82/4 139/83/4
f 144/141/37 141/142/37 137/140/35 140/139/35
f 4/4/1 3/3/1 142/80/1 141/81/1
f 3/143/3 6/144/3 143/142/38 142/141/38
f 6/12/4 8/11/4 144/76/4 143/77/4
f 8/143/6 4/144/6 141/142/37 144/141/37
